# xmcd
#
# Track frame offsets:
#	150
#	8464
#	19392
#	28678
#	39161
#	49080
#	58358
#	69204
#	79150
#	90560
#	100381
#	111152
#
# Disc length: 1609 seconds
# Revision: 1
# Processed by: cddbd v1.5.2PL0 Copyright (c) Steve Scherf et al.
# Submitted via: dBpowerAMP V12.0
#
DISCID=9006470c
DTITLE=George Jones - Country Stars and Stripes
DYEAR=2001
DGENRE=Country
TTITLE0=I'm A One Woman Man
TTITLE1=Accidentally On Purpose
TTITLE2='Cause I Love You
TTITLE3=Window Up Above
TTITLE4=Heartbreak Hotel
TTITLE5=Maybe Little Baby
TTITLE6=You're In My Heart
TTITLE7=Wasted Words
TTITLE8=One Is A Lonely Number
TTITLE9=Rain Keeps A-Fallin'
TTITLE10=Who Shot Sam
TTITLE11=Sweet Dreams
EXTD=
EXTT0=
EXTT1=
EXTT2=
EXTT3=
EXTT4=
EXTT5=
EXTT6=
EXTT7=
EXTT8=
EXTT9=
EXTT10=
EXTT11=
PLAYORDER=
